<svg xmlns="http://www.w3.org/2000/svg" xmlns:xlink="http://www.w3.org/1999/xlink" width="1080" zoomAndPan="magnify" viewBox="0 0 810 809.999993" height="1080" preserveAspectRatio="xMidYMid meet" version="1.0"><defs><clipPath id="cabcba0ac7"><path d="M 810.027344 405.003906 C 810.027344 628.695312 628.6875 810.027344 405.003906 810.027344 C 181.3125 810.027344 -0.03125 628.695312 -0.03125 405.003906 C -0.03125 181.3125 181.3125 -0.03125 405.003906 -0.03125 C 628.6875 -0.03125 810.027344 181.3125 810.027344 405.003906 " clip-rule="nonzero"/></clipPath><clipPath id="df5e733149"><path d="M 257 135 L 549 135 L 549 573 L 257 573 Z M 257 135 " clip-rule="nonzero"/></clipPath><clipPath id="490b874b5f"><path d="M 810.027344 405.003906 C 810.027344 628.695312 628.6875 810.027344 405.003906 810.027344 C 181.3125 810.027344 -0.03125 628.695312 -0.03125 405.003906 C -0.03125 181.3125 181.3125 -0.03125 405.003906 -0.03125 C 628.6875 -0.03125 810.027344 181.3125 810.027344 405.003906 " clip-rule="nonzero"/></clipPath><clipPath id="32b6203528"><path d="M 536 678 L 584 678 L 584 810 L 536 810 Z M 536 678 " clip-rule="nonzero"/></clipPath><clipPath id="955eead807"><path d="M 810.027344 405.003906 C 810.027344 628.695312 628.6875 810.027344 405.003906 810.027344 C 181.3125 810.027344 -0.03125 628.695312 -0.03125 405.003906 C -0.03125 181.3125 181.3125 -0.03125 405.003906 -0.03125 C 628.6875 -0.03125 810.027344 181.3125 810.027344 405.003906 " clip-rule="nonzero"/></clipPath><clipPath id="93bb8eddb6"><path d="M 580 717 L 582 717 L 582 740 L 580 740 Z M 580 717 " clip-rule="nonzero"/></clipPath><clipPath id="3b25be1622"><path d="M 810.027344 405.003906 C 810.027344 628.695312 628.6875 810.027344 405.003906 810.027344 C 181.3125 810.027344 -0.03125 628.695312 -0.03125 405.003906 C -0.03125 181.3125 181.3125 -0.03125 405.003906 -0.03125 C 628.6875 -0.03125 810.027344 181.3125 810.027344 405.003906 " clip-rule="nonzero"/></clipPath><clipPath id="013e533c1e"><path d="M 536 700.445312 L 582.644531 700.445312 L 582.644531 787.617188 L 536 787.617188 Z M 536 700.445312 " clip-rule="nonzero"/></clipPath><clipPath id="2026033044"><path d="M 810.027344 405.003906 C 810.027344 628.695312 628.6875 810.027344 405.003906 810.027344 C 181.3125 810.027344 -0.03125 628.695312 -0.03125 405.003906 C -0.03125 181.3125 181.3125 -0.03125 405.003906 -0.03125 C 628.6875 -0.03125 810.027344 181.3125 810.027344 405.003906 " clip-rule="nonzero"/></clipPath><clipPath id="4721c73f29"><path d="M 499 549 L 596 549 L 596 749 L 499 749 Z M 499 549 " clip-rule="nonzero"/></clipPath><clipPath id="3559497b50"><path d="M 810.027344 405.003906 C 810.027344 628.695312 628.6875 810.027344 405.003906 810.027344 C 181.3125 810.027344 -0.03125 628.695312 -0.03125 405.003906 C -0.03125 181.3125 181.3125 -0.03125 405.003906 -0.03125 C 628.6875 -0.03125 810.027344 181.3125 810.027344 405.003906 " clip-rule="nonzero"/></clipPath><clipPath id="f7b50febfb"><path d="M 499 561 L 558 561 L 558 748 L 499 748 Z M 499 561 " clip-rule="nonzero"/></clipPath><clipPath id="87dc68dc5a"><path d="M 810.027344 405.003906 C 810.027344 628.695312 628.6875 810.027344 405.003906 810.027344 C 181.3125 810.027344 -0.03125 628.695312 -0.03125 405.003906 C -0.03125 181.3125 181.3125 -0.03125 405.003906 -0.03125 C 628.6875 -0.03125 810.027344 181.3125 810.027344 405.003906 " clip-rule="nonzero"/></clipPath><clipPath id="f3cd79bef3"><path d="M 226 678 L 274 678 L 274 810 L 226 810 Z M 226 678 " clip-rule="nonzero"/></clipPath><clipPath id="05a6d03d7e"><path d="M 810.027344 405.003906 C 810.027344 628.695312 628.6875 810.027344 405.003906 810.027344 C 181.3125 810.027344 -0.03125 628.695312 -0.03125 405.003906 C -0.03125 181.3125 181.3125 -0.03125 405.003906 -0.03125 C 628.6875 -0.03125 810.027344 181.3125 810.027344 405.003906 " clip-rule="nonzero"/></clipPath><clipPath id="be520e0ed9"><path d="M 227 700.445312 L 274 700.445312 L 274 766 L 227 766 Z M 227 700.445312 " clip-rule="nonzero"/></clipPath><clipPath id="b700499d7d"><path d="M 810.027344 405.003906 C 810.027344 628.695312 628.6875 810.027344 405.003906 810.027344 C 181.3125 810.027344 -0.03125 628.695312 -0.03125 405.003906 C -0.03125 181.3125 181.3125 -0.03125 405.003906 -0.03125 C 628.6875 -0.03125 810.027344 181.3125 810.027344 405.003906 " clip-rule="nonzero"/></clipPath><clipPath id="766a47bbc3"><path d="M 227 700.445312 L 274 700.445312 L 274 787.617188 L 227 787.617188 Z M 227 700.445312 " clip-rule="nonzero"/></clipPath><clipPath id="69ee473ce1"><path d="M 810.027344 405.003906 C 810.027344 628.695312 628.6875 810.027344 405.003906 810.027344 C 181.3125 810.027344 -0.03125 628.695312 -0.03125 405.003906 C -0.03125 181.3125 181.3125 -0.03125 405.003906 -0.03125 C 628.6875 -0.03125 810.027344 181.3125 810.027344 405.003906 " clip-rule="nonzero"/></clipPath><clipPath id="42b08eb572"><path d="M 214 549 L 311 549 L 311 749 L 214 749 Z M 214 549 " clip-rule="nonzero"/></clipPath><clipPath id="fa4832e311"><path d="M 810.027344 405.003906 C 810.027344 628.695312 628.6875 810.027344 405.003906 810.027344 C 181.3125 810.027344 -0.03125 628.695312 -0.03125 405.003906 C -0.03125 181.3125 181.3125 -0.03125 405.003906 -0.03125 C 628.6875 -0.03125 810.027344 181.3125 810.027344 405.003906 " clip-rule="nonzero"/></clipPath><clipPath id="6c8336e5fe"><path d="M 252.800781 561 L 311 561 L 311 748 L 252.800781 748 Z M 252.800781 561 " clip-rule="nonzero"/></clipPath><clipPath id="d48f26b728"><path d="M 810.027344 405.003906 C 810.027344 628.695312 628.6875 810.027344 405.003906 810.027344 C 181.3125 810.027344 -0.03125 628.695312 -0.03125 405.003906 C -0.03125 181.3125 181.3125 -0.03125 405.003906 -0.03125 C 628.6875 -0.03125 810.027344 181.3125 810.027344 405.003906 " clip-rule="nonzero"/></clipPath><clipPath id="e38eee3a02"><path d="M 280 511 L 530.8125 511 L 530.8125 810 L 280 810 Z M 280 511 " clip-rule="nonzero"/></clipPath><clipPath id="1f63fc7ffc"><path d="M 810.027344 405.003906 C 810.027344 628.695312 628.6875 810.027344 405.003906 810.027344 C 181.3125 810.027344 -0.03125 628.695312 -0.03125 405.003906 C -0.03125 181.3125 181.3125 -0.03125 405.003906 -0.03125 C 628.6875 -0.03125 810.027344 181.3125 810.027344 405.003906 " clip-rule="nonzero"/></clipPath><clipPath id="4dab9a7916"><path d="M 367 442 L 445.996094 442 L 445.996094 544.949219 L 367 544.949219 Z M 367 442 " clip-rule="nonzero"/></clipPath><clipPath id="a449dc5d00"><path d="M 810.027344 405.003906 C 810.027344 628.695312 628.6875 810.027344 405.003906 810.027344 C 181.3125 810.027344 -0.03125 628.695312 -0.03125 405.003906 C -0.03125 181.3125 181.3125 -0.03125 405.003906 -0.03125 C 628.6875 -0.03125 810.027344 181.3125 810.027344 405.003906 " clip-rule="nonzero"/></clipPath><clipPath id="8bce59bb1a"><path d="M 374 471 L 441 471 L 441 497 L 374 497 Z M 374 471 " clip-rule="nonzero"/></clipPath><clipPath id="4b5a005388"><path d="M 810.027344 405.003906 C 810.027344 628.695312 628.6875 810.027344 405.003906 810.027344 C 181.3125 810.027344 -0.03125 628.695312 -0.03125 405.003906 C -0.03125 181.3125 181.3125 -0.03125 405.003906 -0.03125 C 628.6875 -0.03125 810.027344 181.3125 810.027344 405.003906 " clip-rule="nonzero"/></clipPath><clipPath id="6e42989ab0"><path d="M 374 471 L 441 471 L 441 498 L 374 498 Z M 374 471 " clip-rule="nonzero"/></clipPath><clipPath id="4b40469b64"><path d="M 810.027344 405.003906 C 810.027344 628.695312 628.6875 810.027344 405.003906 810.027344 C 181.3125 810.027344 -0.03125 628.695312 -0.03125 405.003906 C -0.03125 181.3125 181.3125 -0.03125 405.003906 -0.03125 C 628.6875 -0.03125 810.027344 181.3125 810.027344 405.003906 " clip-rule="nonzero"/></clipPath><clipPath id="a8bfe68658"><path d="M 270 316.414062 L 306.988281 316.414062 L 306.988281 375 L 270 375 Z M 270 316.414062 " clip-rule="nonzero"/></clipPath><clipPath id="15d43e3830"><path d="M 810.027344 405.003906 C 810.027344 628.695312 628.6875 810.027344 405.003906 810.027344 C 181.3125 810.027344 -0.03125 628.695312 -0.03125 405.003906 C -0.03125 181.3125 181.3125 -0.03125 405.003906 -0.03125 C 628.6875 -0.03125 810.027344 181.3125 810.027344 405.003906 " clip-rule="nonzero"/></clipPath><clipPath id="3c31517267"><path d="M 277 328 L 296 328 L 296 365.890625 L 277 365.890625 Z M 277 328 " clip-rule="nonzero"/></clipPath><clipPath id="66a6dc2e07"><path d="M 810.027344 405.003906 C 810.027344 628.695312 628.6875 810.027344 405.003906 810.027344 C 181.3125 810.027344 -0.03125 628.695312 -0.03125 405.003906 C -0.03125 181.3125 181.3125 -0.03125 405.003906 -0.03125 C 628.6875 -0.03125 810.027344 181.3125 810.027344 405.003906 " clip-rule="nonzero"/></clipPath><clipPath id="9ab47c78cb"><path d="M 276.359375 327 L 297.566406 327 L 297.566406 365.890625 L 276.359375 365.890625 Z M 276.359375 327 " clip-rule="nonzero"/></clipPath><clipPath id="26407b528a"><path d="M 810.027344 405.003906 C 810.027344 628.695312 628.6875 810.027344 405.003906 810.027344 C 181.3125 810.027344 -0.03125 628.695312 -0.03125 405.003906 C -0.03125 181.3125 181.3125 -0.03125 405.003906 -0.03125 C 628.6875 -0.03125 810.027344 181.3125 810.027344 405.003906 " clip-rule="nonzero"/></clipPath><clipPath id="7a564081c5"><path d="M 281.074219 330.550781 L 293 330.550781 L 293 349 L 281.074219 349 Z M 281.074219 330.550781 " clip-rule="nonzero"/></clipPath><clipPath id="b654a07d99"><path d="M 810.027344 405.003906 C 810.027344 628.695312 628.6875 810.027344 405.003906 810.027344 C 181.3125 810.027344 -0.03125 628.695312 -0.03125 405.003906 C -0.03125 181.3125 181.3125 -0.03125 405.003906 -0.03125 C 628.6875 -0.03125 810.027344 181.3125 810.027344 405.003906 " clip-rule="nonzero"/></clipPath><clipPath id="b310195a04"><path d="M 503 316.414062 L 540.234375 316.414062 L 540.234375 375 L 503 375 Z M 503 316.414062 " clip-rule="nonzero"/></clipPath><clipPath id="521a89325b"><path d="M 810.027344 405.003906 C 810.027344 628.695312 628.6875 810.027344 405.003906 810.027344 C 181.3125 810.027344 -0.03125 628.695312 -0.03125 405.003906 C -0.03125 181.3125 181.3125 -0.03125 405.003906 -0.03125 C 628.6875 -0.03125 810.027344 181.3125 810.027344 405.003906 " clip-rule="nonzero"/></clipPath><clipPath id="2df7fbbf84"><path d="M 514.320312 328 L 534 328 L 534 365.890625 L 514.320312 365.890625 Z M 514.320312 328 " clip-rule="nonzero"/></clipPath><clipPath id="f5bf2e6a5f"><path d="M 810.027344 405.003906 C 810.027344 628.695312 628.6875 810.027344 405.003906 810.027344 C 181.3125 810.027344 -0.03125 628.695312 -0.03125 405.003906 C -0.03125 181.3125 181.3125 -0.03125 405.003906 -0.03125 C 628.6875 -0.03125 810.027344 181.3125 810.027344 405.003906 " clip-rule="nonzero"/></clipPath><clipPath id="a85a761520"><path d="M 513 327 L 534 327 L 534 365.890625 L 513 365.890625 Z M 513 327 " clip-rule="nonzero"/></clipPath><clipPath id="fd3dae7e6b"><path d="M 810.027344 405.003906 C 810.027344 628.695312 628.6875 810.027344 405.003906 810.027344 C 181.3125 810.027344 -0.03125 628.695312 -0.03125 405.003906 C -0.03125 181.3125 181.3125 -0.03125 405.003906 -0.03125 C 628.6875 -0.03125 810.027344 181.3125 810.027344 405.003906 " clip-rule="nonzero"/></clipPath><clipPath id="86ec21c0ea"><path d="M 517 330.550781 L 530 330.550781 L 530 349 L 517 349 Z M 517 330.550781 " clip-rule="nonzero"/></clipPath><clipPath id="0122c2ffa5"><path d="M 810.027344 405.003906 C 810.027344 628.695312 628.6875 810.027344 405.003906 810.027344 C 181.3125 810.027344 -0.03125 628.695312 -0.03125 405.003906 C -0.03125 181.3125 181.3125 -0.03125 405.003906 -0.03125 C 628.6875 -0.03125 810.027344 181.3125 810.027344 405.003906 " clip-rule="nonzero"/></clipPath><clipPath id="738fe7b270"><path d="M 301 190 L 511.964844 190 L 511.964844 483 L 301 483 Z M 301 190 " clip-rule="nonzero"/></clipPath><clipPath id="5e5782ca8c"><path d="M 810.027344 405.003906 C 810.027344 628.695312 628.6875 810.027344 405.003906 810.027344 C 181.3125 810.027344 -0.03125 628.695312 -0.03125 405.003906 C -0.03125 181.3125 181.3125 -0.03125 405.003906 -0.03125 C 628.6875 -0.03125 810.027344 181.3125 810.027344 405.003906 " clip-rule="nonzero"/></clipPath><clipPath id="0c2a48a150"><path d="M 372 399 L 440 399 L 440 431 L 372 431 Z M 372 399 " clip-rule="nonzero"/></clipPath><clipPath id="c2b4c0eebb"><path d="M 810.027344 405.003906 C 810.027344 628.695312 628.6875 810.027344 405.003906 810.027344 C 181.3125 810.027344 -0.03125 628.695312 -0.03125 405.003906 C -0.03125 181.3125 181.3125 -0.03125 405.003906 -0.03125 C 628.6875 -0.03125 810.027344 181.3125 810.027344 405.003906 " clip-rule="nonzero"/></clipPath><clipPath id="7965925864"><path d="M 364 192 L 515 192 L 515 308 L 364 308 Z M 364 192 " clip-rule="nonzero"/></clipPath><clipPath id="03a86a01db"><path d="M 810.027344 405.003906 C 810.027344 628.695312 628.6875 810.027344 405.003906 810.027344 C 181.3125 810.027344 -0.03125 628.695312 -0.03125 405.003906 C -0.03125 181.3125 181.3125 -0.03125 405.003906 -0.03125 C 628.6875 -0.03125 810.027344 181.3125 810.027344 405.003906 " clip-rule="nonzero"/></clipPath><clipPath id="4eb68f995a"><path d="M 361.179688 192 L 511 192 L 511 311 L 361.179688 311 Z M 361.179688 192 " clip-rule="nonzero"/></clipPath><clipPath id="369fe9ae6c"><path d="M 810.027344 405.003906 C 810.027344 628.695312 628.6875 810.027344 405.003906 810.027344 C 181.3125 810.027344 -0.03125 628.695312 -0.03125 405.003906 C -0.03125 181.3125 181.3125 -0.03125 405.003906 -0.03125 C 628.6875 -0.03125 810.027344 181.3125 810.027344 405.003906 " clip-rule="nonzero"/></clipPath><clipPath id="4b4cf03660"><path d="M 322 276 L 384 276 L 384 292.851562 L 322 292.851562 Z M 322 276 " clip-rule="nonzero"/></clipPath><clipPath id="81fdae2a89"><path d="M 810.027344 405.003906 C 810.027344 628.695312 628.6875 810.027344 405.003906 810.027344 C 181.3125 810.027344 -0.03125 628.695312 -0.03125 405.003906 C -0.03125 181.3125 181.3125 -0.03125 405.003906 -0.03125 C 628.6875 -0.03125 810.027344 181.3125 810.027344 405.003906 " clip-rule="nonzero"/></clipPath><clipPath id="bc7de037b0"><path d="M 425 276 L 487 276 L 487 292.851562 L 425 292.851562 Z M 425 276 " clip-rule="nonzero"/></clipPath><clipPath id="bdeaa4b71a"><path d="M 810.027344 405.003906 C 810.027344 628.695312 628.6875 810.027344 405.003906 810.027344 C 181.3125 810.027344 -0.03125 628.695312 -0.03125 405.003906 C -0.03125 181.3125 181.3125 -0.03125 405.003906 -0.03125 C 628.6875 -0.03125 810.027344 181.3125 810.027344 405.003906 " clip-rule="nonzero"/></clipPath><clipPath id="76ad7decf3"><path d="M 391 366 L 422 366 L 422 379 L 391 379 Z M 391 366 " clip-rule="nonzero"/></clipPath><clipPath id="8c3e1faad2"><path d="M 810.027344 405.003906 C 810.027344 628.695312 628.6875 810.027344 405.003906 810.027344 C 181.3125 810.027344 -0.03125 628.695312 -0.03125 405.003906 C -0.03125 181.3125 181.3125 -0.03125 405.003906 -0.03125 C 628.6875 -0.03125 810.027344 181.3125 810.027344 405.003906 " clip-rule="nonzero"/></clipPath><clipPath id="529dfbbf15"><path d="M 393 437 L 420 437 L 420 447 L 393 447 Z M 393 437 " clip-rule="nonzero"/></clipPath><clipPath id="e8b2babb30"><path d="M 810.027344 405.003906 C 810.027344 628.695312 628.6875 810.027344 405.003906 810.027344 C 181.3125 810.027344 -0.03125 628.695312 -0.03125 405.003906 C -0.03125 181.3125 181.3125 -0.03125 405.003906 -0.03125 C 628.6875 -0.03125 810.027344 181.3125 810.027344 405.003906 " clip-rule="nonzero"/></clipPath><clipPath id="531a8edb3d"><path d="M 391.804688 371 L 422 371 L 422 384.738281 L 391.804688 384.738281 Z M 391.804688 371 " clip-rule="nonzero"/></clipPath><clipPath id="f37cc30be2"><path d="M 810.027344 405.003906 C 810.027344 628.695312 628.6875 810.027344 405.003906 810.027344 C 181.3125 810.027344 -0.03125 628.695312 -0.03125 405.003906 C -0.03125 181.3125 181.3125 -0.03125 405.003906 -0.03125 C 628.6875 -0.03125 810.027344 181.3125 810.027344 405.003906 " clip-rule="nonzero"/></clipPath><clipPath id="15ac350175"><path d="M 358 319 L 377.671875 319 L 377.671875 354 L 358 354 Z M 358 319 " clip-rule="nonzero"/></clipPath><clipPath id="d0e946c290"><path d="M 810.027344 405.003906 C 810.027344 628.695312 628.6875 810.027344 405.003906 810.027344 C 181.3125 810.027344 -0.03125 628.695312 -0.03125 405.003906 C -0.03125 181.3125 181.3125 -0.03125 405.003906 -0.03125 C 628.6875 -0.03125 810.027344 181.3125 810.027344 405.003906 " clip-rule="nonzero"/></clipPath><clipPath id="20fcd5a32b"><path d="M 435 319 L 455 319 L 455 354 L 435 354 Z M 435 319 " clip-rule="nonzero"/></clipPath><clipPath id="4044c73e1b"><path d="M 810.027344 405.003906 C 810.027344 628.695312 628.6875 810.027344 405.003906 810.027344 C 181.3125 810.027344 -0.03125 628.695312 -0.03125 405.003906 C -0.03125 181.3125 181.3125 -0.03125 405.003906 -0.03125 C 628.6875 -0.03125 810.027344 181.3125 810.027344 405.003906 " clip-rule="nonzero"/></clipPath><clipPath id="7e2e7bcda0"><path d="M 295.210938 170.339844 L 523 170.339844 L 523 335 L 295.210938 335 Z M 295.210938 170.339844 " clip-rule="nonzero"/></clipPath><clipPath id="a42438ecc4"><path d="M 810.027344 405.003906 C 810.027344 628.695312 628.6875 810.027344 405.003906 810.027344 C 181.3125 810.027344 -0.03125 628.695312 -0.03125 405.003906 C -0.03125 181.3125 181.3125 -0.03125 405.003906 -0.03125 C 628.6875 -0.03125 810.027344 181.3125 810.027344 405.003906 " clip-rule="nonzero"/></clipPath><clipPath id="11e9fc7a4c"><path d="M 375.3125 403 L 438 403 L 438 423 L 375.3125 423 Z M 375.3125 403 " clip-rule="nonzero"/></clipPath><clipPath id="d412bf81c1"><path d="M 810.027344 405.003906 C 810.027344 628.695312 628.6875 810.027344 405.003906 810.027344 C 181.3125 810.027344 -0.03125 628.695312 -0.03125 405.003906 C -0.03125 181.3125 181.3125 -0.03125 405.003906 -0.03125 C 628.6875 -0.03125 810.027344 181.3125 810.027344 405.003906 " clip-rule="nonzero"/></clipPath><clipPath id="e54214dcca"><path d="M 375.3125 403 L 438 403 L 438 415 L 375.3125 415 Z M 375.3125 403 " clip-rule="nonzero"/></clipPath><clipPath id="5398372dac"><path d="M 810.027344 405.003906 C 810.027344 628.695312 628.6875 810.027344 405.003906 810.027344 C 181.3125 810.027344 -0.03125 628.695312 -0.03125 405.003906 C -0.03125 181.3125 181.3125 -0.03125 405.003906 -0.03125 C 628.6875 -0.03125 810.027344 181.3125 810.027344 405.003906 " clip-rule="nonzero"/></clipPath><clipPath id="e2165c5333"><path d="M 375.3125 403 L 384.738281 403 L 384.738281 413 L 375.3125 413 Z M 375.3125 403 " clip-rule="nonzero"/></clipPath><clipPath id="c1aea0d9f0"><path d="M 810.027344 405.003906 C 810.027344 628.695312 628.6875 810.027344 405.003906 810.027344 C 181.3125 810.027344 -0.03125 628.695312 -0.03125 405.003906 C -0.03125 181.3125 181.3125 -0.03125 405.003906 -0.03125 C 628.6875 -0.03125 810.027344 181.3125 810.027344 405.003906 " clip-rule="nonzero"/></clipPath><clipPath id="caf629b58e"><path d="M 428 403 L 438 403 L 438 413 L 428 413 Z M 428 403 " clip-rule="nonzero"/></clipPath><clipPath id="1b56f77158"><path d="M 810.027344 405.003906 C 810.027344 628.695312 628.6875 810.027344 405.003906 810.027344 C 181.3125 810.027344 -0.03125 628.695312 -0.03125 405.003906 C -0.03125 181.3125 181.3125 -0.03125 405.003906 -0.03125 C 628.6875 -0.03125 810.027344 181.3125 810.027344 405.003906 " clip-rule="nonzero"/></clipPath><clipPath id="01ef1085d7"><path d="M 295.210938 735 L 516 735 L 516 810 L 295.210938 810 Z M 295.210938 735 " clip-rule="nonzero"/></clipPath><clipPath id="057e94fcd5"><path d="M 810.027344 405.003906 C 810.027344 628.695312 628.6875 810.027344 405.003906 810.027344 C 181.3125 810.027344 -0.03125 628.695312 -0.03125 405.003906 C -0.03125 181.3125 181.3125 -0.03125 405.003906 -0.03125 C 628.6875 -0.03125 810.027344 181.3125 810.027344 405.003906 " clip-rule="nonzero"/></clipPath></defs><path fill="#f8a4ce" d="M 810.027344 405.003906 C 810.027344 628.695312 628.6875 810.027344 405.003906 810.027344 C 181.308594 810.027344 -0.03125 628.695312 -0.03125 405.003906 C -0.03125 181.3125 181.308594 -0.03125 405.003906 -0.03125 C 628.6875 -0.03125 810.027344 181.3125 810.027344 405.003906 " fill-opacity="1" fill-rule="nonzero"/><g clip-path="url(#cabcba0ac7)"><path fill="#f8a4ce" d="M 810.027344 405.003906 C 810.027344 628.695312 628.6875 810.027344 405.003906 810.027344 C 181.308594 810.027344 -0.03125 628.695312 -0.03125 405.003906 C -0.03125 181.3125 181.308594 -0.03125 405.003906 -0.03125 C 628.6875 -0.03125 810.027344 181.3125 810.027344 405.003906 " fill-opacity="1" fill-rule="nonzero"/></g><g clip-path="url(#df5e733149)"><g clip-path="url(#490b874b5f)"><path fill="#211a1b" d="M 295.78125 573 C 295.78125 573 193.230469 167.761719 322.847656 152.0625 C 322.847656 152.0625 653.140625 9.347656 514.347656 549.308594 L 295.78125 573 " fill-opacity="1" fill-rule="nonzero"/></g></g><g clip-path="url(#32b6203528)"><g clip-path="url(#955eead807)"><path fill="#f0a176" d="M 573.15625 857.902344 C 578.160156 774.457031 583.574219 678.503906 583.574219 678.503906 L 536.472656 718.492188 C 537.355469 733.320312 539.324219 797.410156 541.074219 857.902344 L 573.15625 857.902344 " fill-opacity="1" fill-rule="nonzero"/></g></g><g clip-path="url(#93bb8eddb6)"><g clip-path="url(#3b25be1622)"><path fill="#d98571" d="M 580.078125 739.734375 C 580.546875 731.5625 580.988281 723.929688 581.382812 717.019531 C 580.988281 723.929688 580.546875 731.5625 580.078125 739.734375 " fill-opacity="1" fill-rule="nonzero"/></g></g><g clip-path="url(#013e533c1e)"><g clip-path="url(#2026033044)"><path fill="#d6855a" d="M 538.964844 787.351562 C 537.925781 754.230469 537.003906 727.417969 536.472656 718.492188 L 543.015625 712.933594 L 582.320312 700.527344 C 582.046875 705.378906 581.734375 710.917969 581.382812 717.019531 C 580.988281 723.929688 580.546875 731.5625 580.078125 739.734375 C 579.523438 749.371094 578.925781 759.769531 578.289062 770.648438 C 576.046875 771.972656 573.734375 773.242188 571.378906 774.394531 C 569.667969 775.15625 567.9375 775.929688 566.214844 776.675781 C 561.890625 778.386719 557.519531 779.582031 553.285156 779.953125 L 553.238281 782.050781 C 548.527344 783.898438 543.75 785.667969 538.964844 787.351562 " fill-opacity="1" fill-rule="nonzero"/></g></g><g clip-path="url(#4721c73f29)"><g clip-path="url(#3559497b50)"><path fill="#f36387" d="M 527.738281 549.308594 C 527.738281 549.308594 560.484375 560.242188 573.835938 587.734375 C 587.179688 615.222656 595.484375 720.351562 595.484375 720.351562 C 595.484375 720.351562 584.824219 760.503906 518.074219 744.804688 C 518.074219 744.804688 470.648438 551.730469 527.738281 549.308594 " fill-opacity="1" fill-rule="nonzero"/></g></g><g clip-path="url(#f7b50febfb)"><g clip-path="url(#87dc68dc5a)"><path fill="#e54672" d="M 518.074219 744.804688 C 518.074219 744.804688 483.386719 603.554688 509.082031 561.183594 C 511.550781 561.347656 514.144531 561.789062 516.894531 562.597656 C 585.734375 582.855469 547.882812 711.847656 535.875 747.722656 C 530.332031 747.234375 524.40625 746.296875 518.074219 744.804688 " fill-opacity="1" fill-rule="nonzero"/></g></g><g clip-path="url(#f3cd79bef3)"><g clip-path="url(#05a6d03d7e)"><path fill="#f0a176" d="M 268.667969 857.902344 C 270.414062 797.410156 272.386719 733.320312 273.269531 718.492188 L 226.167969 678.503906 C 226.167969 678.503906 231.578125 774.457031 236.585938 857.902344 L 268.667969 857.902344 " fill-opacity="1" fill-rule="nonzero"/></g></g><g clip-path="url(#be520e0ed9)"><g clip-path="url(#b700499d7d)"><path fill="#d98571" d="M 231.117188 765.023438 C 229.609375 739.0625 228.3125 716.210938 227.417969 700.527344 C 228.3125 716.210938 229.617188 739.0625 231.117188 765.023438 M 273.269531 718.492188 L 266.726562 712.933594 L 273.269531 718.492188 " fill-opacity="1" fill-rule="nonzero"/></g></g><g clip-path="url(#766a47bbc3)"><g clip-path="url(#69ee473ce1)"><path fill="#d6855a" d="M 270.773438 787.257812 C 265.980469 785.574219 261.210938 783.796875 256.5 781.9375 L 256.445312 779.953125 C 252.882812 779.648438 249.222656 778.746094 245.578125 777.449219 C 242.363281 776.066406 239.171875 774.652344 236.003906 773.195312 C 234.460938 772.386719 232.929688 771.53125 231.449219 770.648438 C 231.339844 768.761719 231.230469 766.882812 231.117188 765.023438 C 229.617188 739.0625 228.3125 716.210938 227.417969 700.527344 L 266.726562 712.933594 L 273.269531 718.492188 C 272.734375 727.410156 271.816406 754.183594 270.773438 787.257812 " fill-opacity="1" fill-rule="nonzero"/></g></g><g clip-path="url(#42b08eb572)"><g clip-path="url(#fa4832e311)"><path fill="#f36387" d="M 282.261719 549.308594 C 282.261719 549.308594 249.515625 560.242188 236.160156 587.734375 C 222.816406 615.222656 214.515625 720.351562 214.515625 720.351562 C 214.515625 720.351562 225.171875 760.503906 291.925781 744.804688 C 291.925781 744.804688 339.347656 551.730469 282.261719 549.308594 " fill-opacity="1" fill-rule="nonzero"/></g></g><g clip-path="url(#6c8336e5fe)"><g clip-path="url(#d48f26b728)"><path fill="#e54672" d="M 291.925781 744.804688 C 291.925781 744.804688 326.609375 603.554688 300.925781 561.183594 C 298.449219 561.347656 295.855469 561.789062 293.101562 562.597656 C 224.261719 582.855469 262.113281 711.847656 274.125 747.722656 C 279.664062 747.234375 285.59375 746.296875 291.925781 744.804688 " fill-opacity="1" fill-rule="nonzero"/></g></g><g clip-path="url(#e38eee3a02)"><g clip-path="url(#1f63fc7ffc)"><path fill="#f36387" d="M 502.953125 857.902344 C 515.367188 741.539062 533.167969 567.421875 530.34375 550.828125 C 530.34375 550.828125 456.191406 519.398438 443.335938 511.550781 L 405.4375 519.214844 L 367.527344 511.550781 C 354.679688 519.398438 280.53125 550.828125 280.53125 550.828125 C 277.703125 567.421875 295.503906 741.539062 307.917969 857.902344 L 502.953125 857.902344 " fill-opacity="1" fill-rule="nonzero"/></g></g><g clip-path="url(#4dab9a7916)"><g clip-path="url(#a449dc5d00)"><path fill="#da8b65" d="M 436.027344 442.441406 L 406.46875 454.8125 L 376.898438 442.441406 C 376.898438 442.441406 374.570312 501.34375 367.609375 514.890625 C 367.609375 514.890625 387.242188 543.164062 406.46875 544.339844 C 425.683594 543.164062 445.3125 514.890625 445.3125 514.890625 C 438.355469 501.34375 436.027344 442.441406 436.027344 442.441406 " fill-opacity="1" fill-rule="nonzero"/></g></g><g clip-path="url(#8bce59bb1a)"><g clip-path="url(#4b5a005388)"><path fill="#5e3931" d="M 440.777344 496.945312 C 439.550781 489.09375 438.605469 480.011719 437.886719 471.535156 C 438.605469 480.011719 439.5625 489.09375 440.785156 496.945312 C 440.785156 496.945312 440.785156 496.945312 440.777344 496.945312 M 374.640625 476.0625 C 374.78125 474.515625 374.917969 472.980469 375.046875 471.460938 C 374.917969 472.980469 374.78125 474.515625 374.640625 476.0625 " fill-opacity="1" fill-rule="nonzero"/></g></g><g clip-path="url(#6e42989ab0)"><g clip-path="url(#4b40469b64)"><path fill="#b06749" d="M 427.320312 497.964844 C 397.871094 497.964844 380.6875 482.667969 374.640625 476.0625 C 374.78125 474.515625 374.917969 472.980469 375.046875 471.460938 C 386.550781 478.519531 397.613281 482.640625 406.46875 482.640625 C 415.285156 482.640625 426.355469 478.546875 437.886719 471.535156 C 438.605469 480.011719 439.550781 489.09375 440.777344 496.945312 C 436.035156 497.652344 431.554688 497.964844 427.320312 497.964844 " fill-opacity="1" fill-rule="nonzero"/></g></g><g clip-path="url(#a8bfe68658)"><g clip-path="url(#15d43e3830)"><path fill="#d17a50" d="M 306.355469 342.515625 C 308.96875 358.378906 303.242188 372.527344 293.554688 374.125 C 283.871094 375.726562 273.894531 364.167969 271.28125 348.304688 C 268.65625 332.445312 274.390625 318.292969 284.074219 316.691406 C 293.765625 315.089844 303.730469 326.65625 306.355469 342.515625 " fill-opacity="1" fill-rule="nonzero"/></g></g><g clip-path="url(#3c31517267)"><g clip-path="url(#66a6dc2e07)"><path fill="#ba6449" d="M 290.488281 365.394531 C 287.148438 365.394531 283.28125 360.71875 283.28125 360.71875 C 284.976562 361.8125 286.226562 362.238281 287.175781 362.226562 C 290.109375 362.226562 289.953125 358.207031 289.953125 358.207031 C 278.976562 352.378906 290.222656 341.042969 290.222656 341.042969 C 282.289062 343.664062 282.65625 350.199219 282.65625 350.199219 C 280.476562 336.652344 285.785156 332.953125 285.785156 332.953125 C 277.613281 335.667969 280.042969 344.769531 280.042969 344.769531 C 277.53125 344.417969 277.050781 339.929688 277.050781 339.929688 C 277.261719 340.746094 277.347656 341.105469 277.363281 341.105469 C 277.484375 341.105469 275.679688 329.453125 285.363281 328.183594 C 285.765625 328.136719 286.164062 328.109375 286.539062 328.109375 C 296.683594 328.109375 295.953125 346.773438 295.953125 346.773438 L 292.898438 348.265625 C 282.921875 353.832031 295.152344 356.097656 295.152344 356.097656 C 294.75 363.257812 292.734375 365.394531 290.488281 365.394531 " fill-opacity="1" fill-rule="nonzero"/></g></g><g clip-path="url(#9ab47c78cb)"><g clip-path="url(#26407b528a)"><path fill="#9a4f36" d="M 277.261719 342.542969 C 276.875 340.800781 276.8125 338.96875 277.089844 337.183594 C 277.199219 336.285156 277.417969 335.398438 277.742188 334.535156 C 278.054688 333.679688 278.460938 332.839844 278.992188 332.085938 C 279.25 331.691406 279.535156 331.324219 279.867188 331 C 280.179688 330.660156 280.484375 330.300781 280.863281 330.035156 C 281.5625 329.410156 282.371094 328.9375 283.179688 328.480469 C 284.027344 328.109375 284.855469 327.695312 285.777344 327.464844 C 286.652344 327.238281 287.746094 327.125 288.703125 327.335938 C 290.726562 327.695312 292.292969 329.195312 293.285156 330.769531 C 294.324219 332.355469 294.980469 334.09375 295.511719 335.839844 C 296.039062 337.589844 296.398438 339.375 296.671875 341.171875 C 296.8125 342.0625 296.929688 342.957031 297.023438 343.859375 C 297.113281 344.742188 297.167969 345.6875 297.207031 346.527344 L 297.234375 347.152344 L 296.683594 347.363281 C 295.394531 347.859375 294.097656 348.46875 292.898438 349.167969 C 291.730469 349.859375 290.507812 350.695312 289.964844 351.671875 C 289.695312 352.167969 289.707031 352.527344 289.992188 352.941406 C 290.277344 353.363281 290.828125 353.742188 291.398438 354.054688 C 292.597656 354.664062 293.957031 355.066406 295.3125 355.445312 L 295.863281 355.609375 L 295.824219 356.125 C 295.667969 357.992188 295.339844 359.796875 294.695312 361.574219 C 294.363281 362.449219 293.949219 363.3125 293.332031 364.085938 C 292.722656 364.851562 291.8125 365.476562 290.792969 365.625 C 290.285156 365.6875 289.78125 365.632812 289.300781 365.523438 C 288.839844 365.382812 288.390625 365.21875 287.976562 364.988281 C 287.148438 364.554688 286.402344 364.003906 285.722656 363.386719 C 284.351562 362.179688 283.179688 360.792969 282.105469 359.355469 C 283.335938 360.664062 284.605469 361.941406 286.015625 363.027344 C 286.714844 363.578125 287.46875 364.050781 288.261719 364.398438 C 289.042969 364.75 289.890625 364.941406 290.652344 364.777344 C 292.238281 364.492188 293.15625 362.816406 293.664062 361.214844 C 294.1875 359.578125 294.425781 357.792969 294.492188 356.078125 L 294.996094 356.742188 C 293.5625 356.421875 292.125 356.023438 290.738281 355.335938 C 290.054688 354.957031 289.335938 354.542969 288.785156 353.777344 C 288.492188 353.429688 288.316406 352.894531 288.28125 352.390625 C 288.28125 351.875 288.398438 351.367188 288.621094 350.980469 C 289.511719 349.417969 290.839844 348.625 292.097656 347.816406 C 293.386719 347.042969 294.703125 346.40625 296.101562 345.835938 L 295.578125 346.671875 L 295.375 344.015625 C 295.300781 343.140625 295.199219 342.265625 295.082031 341.398438 C 294.839844 339.660156 294.511719 337.941406 294.050781 336.265625 C 293.570312 334.609375 292.964844 332.960938 292.0625 331.554688 C 291.1875 330.136719 289.953125 328.984375 288.425781 328.625 C 287.644531 328.433594 286.90625 328.453125 286.0625 328.636719 C 285.25 328.792969 284.441406 329.152344 283.648438 329.445312 C 282.886719 329.832031 282.132812 330.226562 281.46875 330.78125 C 281.109375 331 280.824219 331.3125 280.519531 331.617188 C 280.199219 331.902344 279.921875 332.226562 279.675781 332.574219 C 279.132812 333.238281 278.699219 333.992188 278.347656 334.785156 C 277.980469 335.574219 277.703125 336.402344 277.53125 337.269531 C 277.160156 338.980469 277.0625 340.773438 277.261719 342.542969 " fill-opacity="1" fill-rule="nonzero"/></g></g><g clip-path="url(#7a564081c5)"><g clip-path="url(#b654a07d99)"><path fill="#9a4f36" d="M 282.1875 348.007812 C 282.1875 348.007812 281.882812 346.601562 281.800781 344.4375 C 281.753906 343.359375 281.773438 342.089844 281.949219 340.726562 C 282.105469 339.375 282.480469 337.949219 283.0625 336.570312 C 283.390625 335.898438 283.734375 335.214844 284.183594 334.617188 C 284.664062 334.039062 285.105469 333.429688 285.703125 333.015625 C 285.988281 332.777344 286.265625 332.554688 286.539062 332.335938 C 286.851562 332.167969 287.148438 332.011719 287.449219 331.867188 C 287.746094 331.710938 288.039062 331.5625 288.316406 331.414062 C 288.621094 331.332031 288.90625 331.25 289.179688 331.175781 C 289.742188 331.039062 290.257812 330.824219 290.71875 330.796875 C 291.179688 330.753906 291.582031 330.714844 291.914062 330.6875 C 292.585938 330.625 292.972656 330.597656 292.972656 330.597656 L 292.910156 332.566406 C 292.910156 332.566406 292.578125 332.566406 291.996094 332.566406 C 291.703125 332.566406 291.34375 332.566406 290.9375 332.566406 C 290.523438 332.566406 290.09375 332.710938 289.605469 332.777344 C 289.355469 332.832031 289.109375 332.867188 288.839844 332.925781 C 288.59375 333.027344 288.34375 333.125 288.085938 333.238281 C 287.820312 333.347656 287.550781 333.449219 287.277344 333.558594 C 287.035156 333.734375 286.789062 333.898438 286.53125 334.074219 C 285.980469 334.378906 285.574219 334.882812 285.105469 335.34375 C 284.664062 335.832031 284.304688 336.421875 283.945312 337 C 283.308594 338.214844 282.832031 339.542969 282.5625 340.839844 C 282.277344 342.128906 282.160156 343.371094 282.105469 344.4375 C 282.003906 346.582031 282.1875 348.007812 282.1875 348.007812 " fill-opacity="1" fill-rule="nonzero"/></g></g><g clip-path="url(#b310195a04)"><g clip-path="url(#521a89325b)"><path fill="#d17a50" d="M 504.527344 342.515625 C 501.902344 358.378906 507.628906 372.527344 517.320312 374.125 C 527.011719 375.726562 536.976562 364.167969 539.601562 348.304688 C 542.222656 332.445312 536.488281 318.292969 526.808594 316.691406 C 517.117188 315.089844 507.140625 326.65625 504.527344 342.515625 " fill-opacity="1" fill-rule="nonzero"/></g></g><g clip-path="url(#2df7fbbf84)"><g clip-path="url(#f5bf2e6a5f)"><path fill="#ba6449" d="M 520.394531 365.394531 C 518.140625 365.394531 516.132812 363.257812 515.71875 356.097656 C 515.71875 356.097656 527.957031 353.832031 517.980469 348.265625 L 514.917969 346.773438 C 514.917969 346.773438 514.199219 328.109375 524.339844 328.109375 C 524.71875 328.109375 525.105469 328.136719 525.519531 328.183594 C 535.203125 329.453125 533.386719 341.105469 533.507812 341.105469 C 533.535156 341.105469 533.609375 340.746094 533.820312 339.929688 C 533.820312 339.929688 533.34375 344.417969 530.839844 344.769531 C 530.839844 344.769531 533.257812 335.667969 525.085938 332.953125 C 525.085938 332.953125 530.398438 336.652344 528.226562 350.199219 C 528.226562 350.199219 528.585938 343.664062 520.652344 341.042969 C 520.652344 341.042969 531.898438 352.378906 520.917969 358.207031 C 520.917969 358.207031 520.769531 362.226562 523.707031 362.226562 C 524.644531 362.226562 525.90625 361.8125 527.589844 360.71875 C 527.589844 360.71875 523.726562 365.394531 520.394531 365.394531 " fill-opacity="1" fill-rule="nonzero"/></g></g><g clip-path="url(#a85a761520)"><g clip-path="url(#fd3dae7e6b)"><path fill="#9a4f36" d="M 533.617188 342.542969 C 533.8125 340.773438 533.71875 338.980469 533.34375 337.269531 C 533.167969 336.402344 532.890625 335.574219 532.53125 334.785156 C 532.183594 333.992188 531.742188 333.238281 531.199219 332.574219 C 530.957031 332.226562 530.671875 331.902344 530.359375 331.617188 C 530.058594 331.3125 529.773438 331 529.402344 330.78125 C 528.75 330.226562 527.984375 329.832031 527.230469 329.445312 C 526.441406 329.152344 525.628906 328.792969 524.8125 328.636719 C 523.972656 328.453125 523.238281 328.433594 522.445312 328.625 C 520.925781 328.984375 519.683594 330.136719 518.808594 331.554688 C 517.910156 332.960938 517.308594 334.609375 516.832031 336.265625 C 516.363281 337.941406 516.03125 339.660156 515.792969 341.398438 C 515.671875 342.265625 515.582031 343.140625 515.496094 344.015625 L 515.292969 346.671875 L 514.78125 345.835938 C 516.167969 346.40625 517.484375 347.042969 518.78125 347.816406 C 520.035156 348.625 521.359375 349.417969 522.253906 350.980469 C 522.472656 351.367188 522.601562 351.875 522.601562 352.390625 C 522.554688 352.894531 522.390625 353.429688 522.097656 353.777344 C 521.535156 354.542969 520.824219 354.957031 520.144531 355.335938 C 518.746094 356.023438 517.308594 356.421875 515.875 356.742188 L 516.390625 356.078125 C 516.445312 357.792969 516.695312 359.578125 517.210938 361.214844 C 517.714844 362.816406 518.636719 364.492188 520.21875 364.777344 C 520.984375 364.941406 521.839844 364.75 522.621094 364.398438 C 523.402344 364.050781 524.167969 363.578125 524.867188 363.027344 C 526.273438 361.941406 527.542969 360.664062 528.777344 359.355469 C 527.691406 360.792969 526.523438 362.179688 525.160156 363.386719 C 524.480469 364.003906 523.734375 364.554688 522.90625 364.988281 C 522.492188 365.21875 522.039062 365.382812 521.570312 365.523438 C 521.09375 365.632812 520.597656 365.6875 520.082031 365.625 C 519.058594 365.476562 518.15625 364.851562 517.539062 364.085938 C 516.933594 363.3125 516.519531 362.449219 516.179688 361.574219 C 515.542969 359.796875 515.210938 357.992188 515.054688 356.125 L 515.007812 355.609375 L 515.5625 355.445312 C 516.925781 355.066406 518.285156 354.664062 519.472656 354.054688 C 520.042969 353.742188 520.597656 353.363281 520.882812 352.941406 C 521.167969 352.527344 521.175781 352.167969 520.917969 351.671875 C 520.367188 350.695312 519.140625 349.859375 517.972656 349.167969 C 516.777344 348.46875 515.480469 347.859375 514.191406 347.363281 L 513.636719 347.152344 L 513.675781 346.527344 C 513.710938 345.6875 513.757812 344.742188 513.859375 343.859375 C 513.953125 342.957031 514.0625 342.0625 514.199219 341.171875 C 514.476562 339.375 514.84375 337.589844 515.359375 335.839844 C 515.894531 334.09375 516.546875 332.355469 517.585938 330.769531 C 518.582031 329.195312 520.152344 327.695312 522.179688 327.335938 C 523.125 327.125 524.222656 327.238281 525.097656 327.464844 C 526.027344 327.695312 526.84375 328.109375 527.699219 328.480469 C 528.511719 328.9375 529.3125 329.410156 530.011719 330.035156 C 530.386719 330.300781 530.691406 330.660156 531.015625 331 C 531.34375 331.324219 531.628906 331.691406 531.878906 332.085938 C 532.421875 332.839844 532.828125 333.679688 533.128906 334.535156 C 533.453125 335.398438 533.671875 336.285156 533.792969 337.183594 C 534.058594 338.96875 534.003906 340.800781 533.617188 342.542969 " fill-opacity="1" fill-rule="nonzero"/></g></g><g clip-path="url(#86ec21c0ea)"><g clip-path="url(#0122c2ffa5)"><path fill="#9a4f36" d="M 528.695312 348.007812 C 528.695312 348.007812 528.871094 346.582031 528.777344 344.4375 C 528.722656 343.371094 528.59375 342.128906 528.308594 340.839844 C 528.050781 339.542969 527.570312 338.214844 526.9375 337 C 526.578125 336.421875 526.21875 335.832031 525.777344 335.34375 C 525.308594 334.882812 524.894531 334.378906 524.339844 334.074219 C 524.09375 333.898438 523.84375 333.734375 523.597656 333.558594 C 523.320312 333.449219 523.054688 333.347656 522.796875 333.238281 C 522.527344 333.125 522.28125 333.027344 522.03125 332.925781 C 521.773438 332.867188 521.515625 332.832031 521.269531 332.777344 C 520.78125 332.710938 520.355469 332.566406 519.941406 332.566406 C 519.527344 332.566406 519.179688 332.566406 518.882812 332.566406 C 518.296875 332.566406 517.964844 332.566406 517.964844 332.566406 L 517.910156 330.597656 C 517.910156 330.597656 518.296875 330.625 518.957031 330.6875 C 519.289062 330.714844 519.695312 330.753906 520.164062 330.796875 C 520.625 330.824219 521.140625 331.039062 521.691406 331.175781 C 521.96875 331.25 522.261719 331.332031 522.554688 331.414062 C 522.839844 331.5625 523.125 331.710938 523.429688 331.867188 C 523.726562 332.011719 524.027344 332.167969 524.339844 332.335938 C 524.609375 332.554688 524.882812 332.777344 525.171875 333.015625 C 525.777344 333.429688 526.210938 334.039062 526.6875 334.617188 C 527.140625 335.214844 527.488281 335.898438 527.820312 336.570312 C 528.398438 337.949219 528.769531 339.375 528.925781 340.726562 C 529.109375 342.089844 529.117188 343.359375 529.082031 344.4375 C 528.988281 346.601562 528.695312 348.007812 528.695312 348.007812 " fill-opacity="1" fill-rule="nonzero"/></g></g><g clip-path="url(#738fe7b270)"><g clip-path="url(#5e5782ca8c)"><path fill="#f0a176" d="M 511.292969 330.953125 C 511.292969 349.703125 508.890625 371.320312 502.410156 392.25 C 487.90625 439.164062 435.234375 482.640625 406.46875 482.640625 C 377.265625 482.640625 324.117188 437.894531 309.886719 390.203125 C 303.832031 369.921875 301.632812 349.09375 301.632812 330.953125 C 301.632812 270.1875 312.335938 190.652344 406.46875 190.652344 C 500.589844 190.652344 511.292969 270.1875 511.292969 330.953125 " fill-opacity="1" fill-rule="nonzero"/></g></g><g clip-path="url(#0c2a48a150)"><g clip-path="url(#c2b4c0eebb)"><path fill="#e82f76" d="M 372.515625 403.164062 C 372.515625 403.164062 396.8125 395.664062 439.515625 402.4375 C 439.515625 402.4375 408.261719 464.574219 372.515625 403.164062 " fill-opacity="1" fill-rule="nonzero"/></g></g><g clip-path="url(#7965925864)"><g clip-path="url(#03a86a01db)"><path fill="#875340" d="M 510.648438 307.429688 C 510.417969 303.585938 510.113281 299.699219 509.71875 295.824219 C 512.433594 301.871094 514.484375 305.988281 514.484375 305.988281 C 513.214844 306.53125 511.9375 307.007812 510.648438 307.429688 M 498.738281 247.867188 C 491.773438 230.757812 481.097656 215.785156 464.871094 205.449219 C 466.140625 205.652344 467.382812 205.847656 468.597656 206.03125 C 485.027344 216.265625 495.949219 230.851562 503.136719 247.507812 C 502.402344 247.335938 501.738281 247.25 501.140625 247.25 C 500.175781 247.25 499.382812 247.464844 498.738281 247.867188 M 364.105469 197.515625 C 366.453125 195.730469 371.46875 194.25 381.324219 192.613281 C 381.527344 192.648438 381.730469 192.675781 381.929688 192.703125 C 375.488281 193.863281 369.5625 195.484375 364.105469 197.515625 " fill-opacity="1" fill-rule="nonzero"/></g></g><g clip-path="url(#4eb68f995a)"><g clip-path="url(#369fe9ae6c)"><path fill="#d6855a" d="M 494.230469 310.015625 C 444.089844 310.007812 388.234375 244.140625 361.621094 226.71875 C 370.398438 209.105469 357.910156 202.238281 364.105469 197.515625 C 369.5625 195.484375 375.488281 193.863281 381.929688 192.703125 C 412.660156 197.398438 442.582031 201.988281 464.871094 205.449219 C 481.097656 215.785156 491.773438 230.757812 498.738281 247.867188 C 491.503906 252.367188 502.789062 280.402344 509.71875 295.824219 C 510.113281 299.699219 510.417969 303.585938 510.648438 307.429688 C 505.273438 309.207031 499.789062 310.015625 494.230469 310.015625 " fill-opacity="1" fill-rule="nonzero"/></g></g><g clip-path="url(#4b4cf03660)"><g clip-path="url(#81fdae2a89)"><path fill="#211a1b" d="M 322.847656 292.734375 C 322.847656 292.734375 335.410156 281.550781 347.519531 284.304688 C 359.621094 287.054688 378.453125 287.035156 383.964844 280.898438 C 383.964844 280.898438 342.957031 264.441406 322.847656 292.734375 " fill-opacity="1" fill-rule="nonzero"/></g></g><g clip-path="url(#bc7de037b0)"><g clip-path="url(#bdeaa4b71a)"><path fill="#211a1b" d="M 486.460938 292.734375 C 486.460938 292.734375 473.898438 281.550781 461.796875 284.304688 C 449.683594 287.054688 430.863281 287.035156 425.34375 280.898438 C 425.34375 280.898438 466.351562 264.441406 486.460938 292.734375 " fill-opacity="1" fill-rule="nonzero"/></g></g><g clip-path="url(#76ad7decf3)"><g clip-path="url(#8c3e1faad2)"><path fill="#b05838" d="M 391.917969 378.847656 C 391.972656 378.828125 391.714844 378.25 391.804688 377.082031 C 391.851562 376.5 391.953125 375.785156 392.246094 375.027344 C 392.503906 374.246094 392.9375 373.410156 393.507812 372.582031 C 394.089844 371.742188 394.804688 370.898438 395.699219 370.152344 C 396.574219 369.378906 397.605469 368.679688 398.734375 368.089844 C 399.878906 367.539062 401.101562 366.996094 402.417969 366.71875 C 403.722656 366.386719 405.097656 366.265625 406.46875 366.210938 C 407.257812 366.257812 407.691406 366.25 408.453125 366.351562 C 409.164062 366.441406 409.863281 366.542969 410.507812 366.71875 C 411.824219 366.984375 413.046875 367.539062 414.1875 368.089844 C 415.328125 368.667969 416.351562 369.367188 417.226562 370.152344 C 418.117188 370.886719 418.835938 371.734375 419.414062 372.570312 C 419.996094 373.410156 420.417969 374.246094 420.675781 375.027344 C 420.972656 375.785156 421.074219 376.5 421.117188 377.070312 C 421.210938 378.222656 420.953125 378.855469 421.007812 378.847656 C 420.972656 378.855469 420.90625 378.203125 420.445312 377.238281 C 420.226562 376.757812 419.914062 376.207031 419.488281 375.636719 C 419.074219 375.054688 418.515625 374.476562 417.898438 373.886719 C 417.253906 373.308594 416.5 372.753906 415.671875 372.242188 C 414.84375 371.714844 413.882812 371.3125 412.917969 370.886719 C 411.925781 370.511719 410.867188 370.234375 409.789062 370.023438 C 409.238281 369.882812 408.710938 369.839844 408.1875 369.78125 C 407.726562 369.710938 406.910156 369.738281 406.46875 369.699219 C 404.222656 369.691406 401.996094 370.140625 400.007812 370.886719 C 399.039062 371.300781 398.082031 371.714844 397.253906 372.230469 C 396.425781 372.746094 395.671875 373.308594 395.027344 373.878906 C 394.410156 374.476562 393.839844 375.054688 393.433594 375.636719 C 393.011719 376.207031 392.699219 376.769531 392.476562 377.226562 C 392.019531 378.175781 391.953125 378.875 391.917969 378.847656 " fill-opacity="1" fill-rule="nonzero"/></g></g><g clip-path="url(#529dfbbf15)"><g clip-path="url(#e8b2babb30)"><path fill="#ad6544" d="M 393.71875 437.914062 C 393.71875 437.914062 406.679688 444.097656 419.636719 437.914062 C 419.636719 437.914062 408.410156 458.023438 393.71875 437.914062 " fill-opacity="1" fill-rule="nonzero"/></g></g><g clip-path="url(#531a8edb3d)"><g clip-path="url(#f37cc30be2)"><path fill="#d6855a" d="M 406.816406 384.257812 C 398.203125 384.257812 391.917969 380.660156 391.917969 380.660156 C 394.429688 371.890625 403.382812 371.246094 405.933594 371.246094 C 406.375 371.246094 406.625 371.265625 406.625 371.265625 C 406.789062 371.265625 406.953125 371.265625 407.121094 371.265625 C 417.390625 371.265625 421.007812 380.660156 421.007812 380.660156 C 416.019531 383.359375 411.125 384.257812 406.816406 384.257812 " fill-opacity="1" fill-rule="nonzero"/></g></g><g clip-path="url(#15ac350175)"><g clip-path="url(#d0e946c290)"><path fill="#211a1b" d="M 377.226562 336.429688 C 377.226562 345.972656 372.949219 353.703125 367.675781 353.703125 C 362.410156 353.703125 358.132812 345.972656 358.132812 336.429688 C 358.132812 326.886719 362.410156 319.15625 367.675781 319.15625 C 372.949219 319.15625 377.226562 326.886719 377.226562 336.429688 " fill-opacity="1" fill-rule="nonzero"/></g></g><g clip-path="url(#20fcd5a32b)"><g clip-path="url(#4044c73e1b)"><path fill="#211a1b" d="M 454.792969 336.429688 C 454.792969 345.972656 450.523438 353.703125 445.25 353.703125 C 439.976562 353.703125 435.707031 345.972656 435.707031 336.429688 C 435.707031 326.886719 439.976562 319.15625 445.25 319.15625 C 450.523438 319.15625 454.792969 326.886719 454.792969 336.429688 " fill-opacity="1" fill-rule="nonzero"/></g></g><g clip-path="url(#7e2e7bcda0)"><g clip-path="url(#a42438ecc4)"><path fill="#211a1b" d="M 296.433594 312.761719 C 296.433594 312.761719 349.304688 299.800781 361.621094 226.71875 C 361.621094 226.71875 446.1875 308.34375 506.664062 298.917969 L 516.492188 334.8125 C 516.492188 334.8125 534.152344 250.222656 509.800781 222.734375 C 485.457031 195.253906 412.484375 159.914062 360.625 173.257812 C 308.757812 186.613281 291.179688 263.78125 296.433594 312.761719 " fill-opacity="1" fill-rule="nonzero"/></g></g><g clip-path="url(#11e9fc7a4c)"><g clip-path="url(#d412bf81c1)"><path fill="#ffffff" d="M 375.710938 403.164062 C 375.710938 403.164062 399.859375 416.929688 437.648438 403.164062 C 437.648438 403.164062 407.8125 446.898438 375.710938 403.164062 " fill-opacity="1" fill-rule="nonzero"/></g></g><g clip-path="url(#e54214dcca)"><g clip-path="url(#5398372dac)"><path fill="#c7d3df" d="M 375.710938 403.164062 C 376.078125 403.667969 376.457031 404.15625 376.824219 404.636719 C 385.316406 410.921875 406.125 421.992188 436.25 405.023438 C 437.4375 403.566406 437.648438 403.164062 437.648438 403.164062 C 399.859375 416.929688 375.710938 403.164062 375.710938 403.164062 " fill-opacity="1" fill-rule="nonzero"/></g></g><g clip-path="url(#e2165c5333)"><g clip-path="url(#c1aea0d9f0)"><path fill="#211a1b" d="M 384.160156 412.796875 C 382.472656 410.210938 381.09375 407.433594 380.070312 405.105469 C 377.21875 404.027344 375.710938 403.164062 375.710938 403.164062 C 378.542969 407.039062 381.371094 410.210938 384.160156 412.796875 " fill-opacity="1" fill-rule="nonzero"/></g></g><g clip-path="url(#caf629b58e)"><g clip-path="url(#1b56f77158)"><path fill="#211a1b" d="M 428.859375 412.761719 C 434.378906 407.941406 437.648438 403.164062 437.648438 403.164062 C 436.339844 403.632812 435.050781 404.074219 433.78125 404.488281 C 432.566406 406.945312 430.890625 409.992188 428.859375 412.761719 " fill-opacity="1" fill-rule="nonzero"/></g></g><g clip-path="url(#01ef1085d7)"><g clip-path="url(#057e94fcd5)"><path fill="#e54672" d="M 502.953125 857.902344 C 506.921875 820.738281 511.429688 777.714844 515.644531 735.777344 C 417.105469 776.34375 337.617188 756.125 295.449219 738.023438 C 299.597656 779.253906 304.027344 821.402344 307.917969 857.902344 L 502.953125 857.902344 " fill-opacity="1" fill-rule="nonzero"/></g></g></svg>